<svg width="12" height="12" fill="none" xmlns="http://www.w3.org/2000/svg"><path fill-rule="evenodd" clip-rule="evenodd" d="M0 .007V12h12V0H7.48v1.607h2.886v8.786H1.634V1.614h2.983V.007H0z" fill="#F58024"/><path fill-rule="evenodd" clip-rule="evenodd" d="M4.753 8.97a4.428 4.428 0 01-1.294-.692l.644-.962c.342.25.69.44 1.044.57.353.128.694.193 1.02.193.31 0 .55-.06.722-.182a.568.568 0 00.256-.487v-.023a.45.45 0 00-.113-.305 1.024 1.024 0 00-.31-.229 2.738 2.738 0 00-.454-.176l-.53-.158a8.287 8.287 0 01-.698-.223 2.548 2.548 0 01-.633-.334 1.685 1.685 0 01-.46-.51c-.119-.203-.178-.454-.178-.75v-.024c0-.298.057-.561.173-.792.115-.23.274-.428.477-.592a2.15 2.15 0 01.716-.376c.274-.085.567-.129.877-.129.397 0 .799.063 1.205.188.405.125.775.297 1.11.516l-.574 1.009a4.902 4.902 0 00-.918-.428 2.69 2.69 0 00-.859-.159c-.279 0-.495.06-.65.176a.538.538 0 00-.233.446v.023a.4.4 0 00.12.288c.079.082.184.156.315.222.132.067.283.128.454.182.171.055.348.113.53.176.231.07.462.153.693.246.23.094.44.21.626.346.187.137.34.303.46.499.119.195.178.434.178.715v.024c0 .328-.06.613-.179.856-.12.242-.284.443-.495.604-.21.16-.46.281-.745.363a3.308 3.308 0 01-.919.123 4.31 4.31 0 01-1.378-.234z" fill="#F58024"/></svg>