<svg width="14" height="7" fill="none" xmlns="http://www.w3.org/2000/svg"><path fill-rule="evenodd" clip-rule="evenodd" d="M0 .875C0 .643.105.42.293.256.48.092.735 0 1 0h12c.265 0 .52.092.707.256A.824.824 0 0114 .875a.824.824 0 01-.293.619A1.077 1.077 0 0113 1.75H1c-.265 0-.52-.092-.707-.256A.824.824 0 010 .875zm0 5.25c0-.232.105-.455.293-.619C.48 5.342.735 5.25 1 5.25h12c.265 0 .52.092.707.256a.824.824 0 01.293.619.824.824 0 01-.293.619A1.077 1.077 0 0113 7H1c-.265 0-.52-.092-.707-.256A.824.824 0 010 6.125z" fill="#007aff"/></svg>